<svg version="1.2" xmlns="http://www.w3.org/2000/svg" viewBox="0 0 1000 1000" width="1000" height="1000">
	<style>
		.s0 { fill: #ffffff } 
		.s1 { fill: #4b74b5 } 
		.s2 { opacity: .26;fill: #223a58 } 
		.s3 { fill: #223a58 } 
		.s4 { fill: #b5665d } 
		.s5 { fill: #a04a44 } 
		.s6 { fill: none;stroke: #4da6d7;stroke-miterlimit:10;stroke-width: 6 } 
		.s7 { fill: #efc375 } 
		.s8 { fill: #f5d48e } 
		.s9 { fill: #8c332c } 
		.s10 { fill: #ef98c0 } 
		.s11 { fill: #e07cae } 
		.s12 { fill: #ed7a63 } 
		.s13 { opacity: .67;fill: #d85a45 } 
	</style>
	<g id="BACKGROUND">
		<g id="&lt;Group&gt;">
			<path id="&lt;Path&gt;" class="s0" d="m546.83 883.16c0 0-535.59 47.74-498.69-420.79 36.91-468.53 480.54-486.79 715.04-358.62 234.5 128.18 345.38 762.86-216.35 779.41z"/>
		</g>
	</g>
	<g id="OBJECTS">
		<g id="&lt;Group&gt;">
			<g id="&lt;Group&gt;">
				<path id="&lt;Path&gt;" class="s1" d="m453.24 732.89c0 0-120.05 88.85-117.57 267.11h383.63c0 0 25.4-156.99-72.63-267.11-98.04-110.12-193.43 0-193.43 0z"/>
				<g id="&lt;Group&gt;">
					<path id="&lt;Path&gt;" class="s2" d="m468.23 768.41c25.53 15.73 55.28 21.79 84.89 23.9 42.52 3.03 85.67-1.67 127.26-12.04-9.18-16.32-20.28-32.29-33.71-47.38-98.04-110.12-193.43 0-193.43 0 0 0-6.11 4.54-15.54 13.57 9.87 7.75 19.84 15.36 30.53 21.95z"/>
					<path id="&lt;Path&gt;" class="s2" d="m510.85 981.3c-105.57-35.87-144.69-119.08-148.56-123.3-15.99 38.45-27.4 85.77-26.62 142h178.54c-1.85-17.12-2.65-1.72-3.36-18.7z"/>
				</g>
			</g>
			<g id="&lt;Group&gt;">
				<g id="&lt;Group&gt;">
					<path id="&lt;Path&gt;" class="s3" d="m582.73 448.46c0 0 18.41 21.86 42.67 10.12 24.26-11.74 15.21-35.79 15.21-35.79 0 0 12.39 22.95 22.87 17.77 10.48-5.18-1.22-24.68-1.22-24.68 0 0 26.41 19.78 53.97 5.66 27.56-14.13 3.68-51.12 3.68-51.12 0 0 19.62 19.54 28.33 12.83 8.71-6.7-11.46-25.79-11.46-25.79 0 0 28.94 13.6 41.13-14.11 12.18-27.71-11-50.63-18.21-47.92-7.21 2.71 23.41 16.11 25.36-1.42 1.96-17.53-22.65-12.32-22.65-12.32 0 0 26.55-0.18 27.48-27.01 0.93-26.83-47.81-18.14-47.81-18.14 0 0 52.89 6.49 54.21-23.77 1.32-30.27-38.09-49.97-60.89-19.77-22.8 30.19 35.04-22.83 18.15-32.82-16.88-9.98-34.02 20.5-34.02 20.5 0 0 37.23-35.47 17.05-54.98-20.19-19.52-48.51 1.84-60.94 24.68-12.43 22.84 29.96-33.97 16.68-39.58-13.28-5.61-26.24 29.22-26.24 29.22 0 0 24.89-45.11-2.63-52.86-27.51-7.75-40.53 25.95-40.53 25.95l15.36 2.08c0 0 11.56-49.01-22.22-53.6-33.79-4.59-43.55 34.64-43.55 34.64 0 0 12.54-28.77 1.01-33.21-11.52-4.44-16.96 34.01-16.96 34.01 0 0 2.24-45.7-25.88-43.17-28.13 2.54-33.31 46.11-27.03 58.9 6.29 12.79 5.41-5.97 5.41-5.97 0 0-8.61-29.2-22.2-27.39-13.6 1.82-3.19 29.22-3.19 29.22 0 0-5.31-38.48-56.58-23.97-51.27 14.51-27.9 75.46-27.9 75.46 0 0-16.78-30.5-29.66-28.15-12.88 2.34 6.66 31.58 6.66 31.58 0 0-18.47-19.03-42.49-1.88-24.01 17.14-6.07 48.31-6.07 48.31 0 0-25.04-3.46-33.36 11.2-8.31 14.66 14.86 26.04 14.86 26.04 0 0-43.78-5.23-47.69 41.12-3.92 46.35 54.01 40.63 54.01 40.63 0 0-34.89 3.12-28.6 27.19 6.28 24.06 41.44 3.68 41.44 3.68 0 0-25.86 25.62-23.32 31.19 2.53 5.57 30.97-13.66 30.97-13.66 0 0-22.39 15.79-12.59 31.12 9.81 15.33 36.43 0.9 36.43 0.9 0 0-7.03 22 13.1 40.38 20.13 18.37 48.33-13.57 48.33-13.57 0 0-8.97 38.97 1.96 39.56 10.94 0.6 25.19-25.18 25.19-25.18 0 0-4.2 23.65 1.19 23.91 5.39 0.27 21.82-24.48 21.82-24.48z"/>
					<g id="&lt;Group&gt;">
						<path id="&lt;Path&gt;" class="s4" d="m516.55 417.97c0 0 13.23 50.34 3.59 72.37-9.64 22.03-80.54-5.82-93.41 25.34-12.86 31.16 76.89 80.11 145.73 66.52 68.84-13.59 123.53-56.15 124.8-81.65 1.28-25.49-93.44-3.84-99.94-32.34-6.5-28.5-9.14-115.68-9.14-115.68z"/>
						<path id="&lt;Path&gt;" class="s5" d="m519.91 490.74c19.51-3.89 37.47-11.87 47.52-29.45 15.92-27.82 14.25-66.2 9.48-98.47l-60.36 55.15c0 0 13.23 50.34 3.59 72.37-0.06 0.14-0.16 0.26-0.23 0.4z"/>
					</g>
					<g id="&lt;Group&gt;">
						<path id="&lt;Path&gt;" class="s6" d="m380.6 354.8l48.67 3.39"/>
						<g id="&lt;Group&gt;">
							<path id="&lt;Path&gt;" class="s4" d="m529.71 199.41c0 0-114.91-9.48-123.66 104.51-9.94 129.43 79.61 180.58 136.45 147.23 56.84-33.34 72.44-71.98 75.12-137.39 2.69-65.41-39.07-104.06-87.91-114.35z"/>
							<g id="&lt;Group&gt;">
								<path id="&lt;Path&gt;" class="s7" d="m439.47 232.1c0 0-44.63 41.92-88.7-4.31 0 0 28.89-29.33 77.16-2.63 0 0-5.84-26.91 18.45-11.3 24.29 15.61 0 0 0 0 0 0-40.18-37.23 9.64-84.69 0 0 36.81 68.35-16.55 102.93z"/>
								<g id="&lt;Group&gt;">
									<path id="&lt;Path&gt;" class="s8" d="m408.67 284.98c0 0 25.81-40.12 83.23-44.66 57.42-4.55 99.9 40.45 112.14 103.18 12.24 62.73 23.39-20.14 23.39-20.14 0 0 13.65-100.62-76.82-130.04-90.48-29.42-132.19 45.23-141.94 91.66z"/>
									<path id="&lt;Path&gt;" class="s7" d="m607.2 234.55c-0.16 13.11-3.19 25.94-12.14 38.29-3.91 5.4-8.33 10.19-13.08 14.59 10.39 15.88 17.94 34.97 22.06 56.07 12.24 62.73 23.39-20.14 23.39-20.14 0 0 6.66-49.16-20.23-88.81z"/>
								</g>
							</g>
						</g>
					</g>
				</g>
				<g id="&lt;Group&gt;">
					<g id="&lt;Group&gt;">
						<g id="&lt;Group&gt;">
							<path id="&lt;Path&gt;" class="s3" d="m431.47 364.78c-4.52-10.37-4.27-31.17 11.61-29.81 9.89 2.46 13.07 14.98 14.1 23.67-3.17-6.71-8.82-22.1-17.69-19.53-9.37 3.28-8.19 17.16-8.02 25.67z"/>
						</g>
						<g id="&lt;Group&gt;">
							<path id="&lt;Path&gt;" class="s3" d="m521.05 351.36c-4.52-10.37-4.27-31.17 11.61-29.81 9.89 2.45 13.08 14.98 14.1 23.67-3.17-6.71-8.81-22.1-17.69-19.54-9.37 3.28-8.18 17.17-8.02 25.68z"/>
						</g>
						<g id="&lt;Group&gt;">
							<path id="&lt;Path&gt;" class="s9" d="m468.43 335.43c6.75 15.2 8.2 35.21-2.95 48.76 0 0-0.63-2.52-0.63-2.52 5.48 2.69 10.92 5.47 16.14 8.68-6.57-1.72-12.95-4.01-19.3-6.37 10.49-13.83 9.06-32.24 6.74-48.55z"/>
						</g>
						<path id="&lt;Path&gt;" class="s0" d="m462.55 409.23l80.65-14.49c0 0-32.21 47.81-80.65 14.49z"/>
					</g>
					<g id="&lt;Group&gt;">
						<path id="&lt;Path&gt;" class="s6" d="m380.31 349.13c1.21 24.36 21.94 43.13 46.3 41.92 24.37-1.21 43.13-21.94 41.92-46.3-1.21-24.36-21.93-43.13-46.3-41.92-24.36 1.21-43.13 21.94-41.92 46.3z"/>
						<path id="&lt;Path&gt;" class="s6" d="m488.46 331.08c1.21 24.36 21.94 43.13 46.3 41.92 24.36-1.21 43.13-21.94 41.92-46.3-1.21-24.36-21.94-43.13-46.3-41.92-24.36 1.21-43.13 21.94-41.92 46.3z"/>
						<path id="&lt;Path&gt;" class="s6" d="m468 353.37c0 0 7.86-15.31 24.7-6.02"/>
						<path id="&lt;Path&gt;" class="s6" d="m576.71 330.05l48.67 3.39"/>
					</g>
					<g id="&lt;Group&gt;">
						<path id="&lt;Path&gt;" class="s4" d="m601.74 352.31c0 0 5.51-36.08 31.11-27.5 25.6 8.57 2.92 76.54-31.3 65.4-34.21-11.13 0.19-37.9 0.19-37.9z"/>
						<g id="&lt;Group&gt;">
							<path id="&lt;Path&gt;" class="s9" d="m611.87 379.89c5.58-4.84 9.05-9.92-0.95-11.38 0 0-1.05-0.2-1.05-0.2l-0.08-1.14c-0.47-11.18-0.17-26.79 10.09-33.84 11.66-5.73 18.86 3.05 17.78 14.53-0.16 2.96-0.69 5.87-1.52 8.67 0.77-9.42-0.77-26.73-14.26-19.93-8.25 6.19-8.66 20.79-9.21 30.43 0 0-1.13-1.34-1.13-1.34 11.03 2.69 9 9.86 0.33 14.2z"/>
						</g>
					</g>
				</g>
			</g>
			<g id="&lt;Group&gt;">
				<g id="&lt;Group&gt;">
					<g id="&lt;Group&gt;">
						<g id="&lt;Group&gt;">
							<g id="&lt;Group&gt;">
								<path id="&lt;Path&gt;" class="s4" d="m187.66 572.55c0 0 17.3 34.59 31.13 61.77 13.84 27.18 34.59-26.68 34.59-26.68 0 0-33.6-55.35-35.08-55.57-1.48-0.22-30.64 20.48-30.64 20.48z"/>
								<path id="&lt;Path&gt;" class="s5" d="m233.75 575.67c-5.5 3.01-10.92 6.6-15.89 9.21q-9.51 4.97-19.03 9.92c5.93 11.81 13.34 26.51 19.96 39.52 13.84 27.18 34.59-26.69 34.59-26.69 0 0-10.21-16.83-19.63-31.96z"/>
							</g>
							<path id="&lt;Path&gt;" class="s4" d="m211.87 583.88c0 0-29.29 6.22-38.51-20.06-9.22-26.28-8.5-37.64-0.54-40.36 7.96-2.71 16.06 17.28 16.06 17.28l-7.64-10.08c0 0-10.68-21.73-3.04-24.39 7.65-2.66 16.07 19.14 16.07 19.14 0 0-13.3-25.47-6.79-30.85 6.51-5.38 16.34 10.4 16.34 10.4 0 0-20.39-58.73-14-61.16 6.38-2.43 40.38 64.59 41.7 93.9 1.32 29.31-5.85 45.07-19.65 46.18z"/>
						</g>
						<g id="&lt;Group&gt;">
							<g id="&lt;Group&gt;">
								<path id="&lt;Path&gt;" class="s9" d="m198.68 569.35c-2.61-15.36 3.44-31.37 13.74-42.77 0.01 0-0.12 1.02-0.12 1.02-1.65-3.09-3.12-6.22-4.48-9.42-3.05-7.81-10.15-25.06 0.94-29.28 0.41-0.13 0.84 0.05 1.04 0.41l6.05 10.48c5.65 10.42 14.97 20.19 15.15 32.66-0.48-8.18-5.42-15.1-9.75-21.74-4.68-6.58-8.96-13.51-13-20.52l1.05 0.41c-11.13 4.17 1.01 28.86 4.58 36.15 0.18 0.34 0.12 0.76-0.13 1.03-10.22 11.11-16.53 26.34-15.07 41.57z"/>
							</g>
							<g id="&lt;Group&gt;">
								<path id="&lt;Path&gt;" class="s4" d="m172.13 535.92c0 0 10.84 18.04 15.99 15.99 5.16-2.05-1.33-13.41-8.07-25.52 0 0 12.46 23.44 19.9 20.66 7.43-2.79-7.99-27.94-7.99-27.94 0 0 11.93 18.79 18.08 15.26 6.15-3.53-8.43-30.64-8.43-30.64"/>
								<path id="&lt;Path&gt;" class="s9" d="m172.13 535.92c2.39 3.62 4.94 7.15 7.8 10.38 2.06 2.11 4.39 5.04 7.44 5.25 3.39-0.76 1.75-5.1 0.9-7.54-2.38-6.01-5.85-11.52-8.97-17.2l1.51-0.82c2.44 4.39 5.15 8.69 8.22 12.65 2.47 2.87 6.83 8.83 10.84 7.35 4.44-4.07-6.07-21.77-8.66-26.42-0.58-0.94 0.89-1.87 1.48-0.92 3.98 5.57 8.02 12.37 14.4 15.3 2.37 0.86 3.99-0.66 3.9-3.12-0.64-9.56-5.46-18.48-9.38-27.1 4.44 8.56 9.65 17.32 10.51 27.12-0.4 8.04-8.24 3.83-11.67 0.17-3.56-3.44-6.52-7.34-9.23-11.44l1.48-0.92c2.66 4.39 5.08 8.89 7.16 13.6 1.61 4.21 4.07 8.95 2.64 13.59-0.88 2.44-4.26 2.9-6.2 1.9-3.72-1.69-6.29-4.93-8.73-7.98-3.13-4.11-5.82-8.46-8.28-12.97-0.23-0.42-0.07-0.95 0.35-1.17 0.41-0.23 0.94-0.07 1.16 0.34 3.12 5.73 6.4 11.44 8.68 17.6 1.09 2.88 2.39 8.42-2.05 9.01-3.58-0.25-5.8-3.49-7.98-5.87-2.76-3.38-5.15-7.02-7.32-10.79z"/>
							</g>
						</g>
					</g>
					<g id="&lt;Group&gt;">
						<path id="&lt;Path&gt;" class="s10" d="m442.12 500.92c0 0-29.57 3.83-54.85 51.15-25.28 47.34-66.86 131.88-66.86 131.88 0 0-75.2-104.02-82.42-103.12-7.22 0.91-44.23 18.96-42.42 35.21 1.8 16.24 97.62 185.45 131.92 187.26 34.3 1.8 121.24-130.88 121.24-130.88z"/>
						<path id="&lt;Path&gt;" class="s11" d="m423.5 583.96c-9 12.7-8.07 16.48-14.77 30.69-12.21 25.88-21.82 110.95-21.44 140.65 31.6-37.35 61.44-82.88 61.44-82.88l-2.49-64.58c-5.64 7.06-17.63-31.09-22.74-23.88z"/>
					</g>
				</g>
				<g id="&lt;Group&gt;">
					<path id="&lt;Path&gt;" class="s10" d="m512.21 472.97l90.98-26.21c0 0 2.36 31.47 19.48 31.99 17.13 0.51 83.92-11.23 90.24 21.27 6.32 32.49-61.38 237.39-61.38 237.39 0 0-108.31 25.27-219.34 4.51 0 0-31.13-203.09-14.66-227.46 16.47-24.37 70.77-22.6 80.63-20.32 9.85 2.27 14.05-21.17 14.05-21.17z"/>
					<g id="&lt;Group&gt;">
						<path id="&lt;Path&gt;" class="s12" d="m498.16 490.09c0 0-33.95 157.05 8.88 299.67 0 0-58.27 3.99-98.37-32.11 0 0-25-144 16.82-248.44 10.22-25.53 72.67-19.12 72.67-19.12z"/>
						<g id="&lt;Group&gt;">
							<path id="&lt;Path&gt;" class="s12" d="m616.22 472.97c0 0-82.93 145.43-42.18 316.84 0 0 67.56-7.27 96.45-32.55 0 0 56.86-252.94 47.83-267.27-9.02-14.34-102.1-17.02-102.1-17.02z"/>
							<path id="&lt;Path&gt;" class="s13" d="m667.5 543.75c-2.6 14.7-4.7 29.43-3.99 44.36 1.24 26.16 12.62 51.96 27.65 73.29 5.8-27.91 11.89-58.22 16.91-85.51q-20.33-16.01-40.57-32.14z"/>
						</g>
					</g>
				</g>
				<g id="&lt;Group&gt;">
					<g id="&lt;Group&gt;">
						<path id="&lt;Path&gt;" class="s4" d="m751.14 793.81c0 0-39.38 46.76-53.45 45.8-14.07-0.95-26.73-13.87-26.73-13.87 0 0-69.62 56.59-6.33-9.02 0 0-81.23 44.7-4.22-9.4 0 0-96 22.86 0-13.51 0 0-91.78-6.84 5.28-7.9 0 0 17.45 5.28 27.19 15.83l68.44-103.39z"/>
						<path id="&lt;Path&gt;" class="s5" d="m696.52 796.24c6.9 11.01 16.7 19.65 28.22 25.64 13.61-12.89 26.4-28.07 26.4-28.07l10.18-95.46z"/>
					</g>
					<path id="&lt;Path&gt;" class="s11" d="m761.37 675.51c0 0-121.71-85.47-103.21-155.62 16.08-60.95 62.6-33.79 87.87-13.55 25.27 20.24 125.46 137.58 129.07 169.17 3.61 31.59-116.44 139.01-139.9 146.23 0 0-31.86-12.22-43.59-40.24z"/>
				</g>
			</g>
		</g>
	</g>
</svg>